# xmcd
#
# Track frame offsets: 
#        150
#        20837
#        33625
#        55075
#        75553
#        99806
#        117459
#        136517
#        157149
#        168042
#        192886
#        205712
#        237473
#        258006
#        278669
#        303639
#        322476
#
# Disc length: 4487 seconds
#
# Revision: 0
# Processed by: cddbd v1.5.2PL0 Copyright (c) Steve Scherf et al.
# Submitted via: ExactAudioCopy v0.99pb4
#
DISCID=e5118511
DTITLE=Pura Fe - Full Moon Rising
DYEAR=2009
DGENRE=Blues/Rock
TTITLE0=Red Black On Blues
TTITLE1=Grammah Lullaby
TTITLE2=Borders
TTITLE3=Flight Tonight
TTITLE4=Woman Sacred
TTITLE5=Four Daughters
TTITLE6=The Condor Meets The Eagle
TTITLE7=Hard Time Killing Floor
TTITLE8=Great Grampah S Banjo
TTITLE9=Stand Up For Human Pride
TTITLE10=Duhnge
TTITLE11=My Angel
TTITLE12=Ole Mid Life Crisis
TTITLE13=Mahk Jchi
TTITLE14=All My Relations
TTITLE15=Back In The World
TTITLE16=The Jam
EXTD=
EXTT0=
EXTT1=
EXTT2=
EXTT3=
EXTT4=
EXTT5=
EXTT6=
EXTT7=
EXTT8=
EXTT9=
EXTT10=
EXTT11=
EXTT12=
EXTT13=
EXTT14=
EXTT15=
EXTT16=
PLAYORDER=
